<?xml version="1.0" standalone="no"?>
<!DOCTYPE svg PUBLIC "-//W3C//DTD SVG 20010904//EN"
 "http://www.w3.org/TR/2001/REC-SVG-20010904/DTD/svg10.dtd">
<svg version="1.0" xmlns="http://www.w3.org/2000/svg"
 width="280.000000pt" height="280.000000pt" viewBox="0 0 280.000000 280.000000"
 preserveAspectRatio="xMidYMid meet">

<g transform="translate(0.000000,280.000000) scale(0.100000,-0.100000)"
fill="#000000" stroke="none">
<path d="M1275 2694 c-111 -15 -182 -30 -265 -56 -448 -141 -774 -502 -881
-974 -29 -129 -31 -385 -4 -509 112 -521 459 -887 970 -1022 91 -25 117 -27
295 -27 154 -1 213 3 278 17 507 112 887 490 1003 997 25 109 35 318 20 436
-51 416 -291 773 -658 979 -108 60 -260 117 -375 140 -72 15 -325 27 -383 19z
m191 -191 c105 -159 240 -445 232 -495 -2 -16 -21 -26 -86 -46 -45 -14 -85
-23 -88 -20 -3 3 -18 57 -34 119 -32 130 -72 241 -87 246 -14 5 -66 -140 -94
-259 -11 -51 -25 -97 -29 -101 -10 -11 -171 35 -177 51 -8 19 41 151 102 277
52 109 180 315 195 315 4 0 34 -39 66 -87z m-706 -493 c116 -11 268 -35 278
-45 4 -4 -25 -173 -53 -310 -2 -11 -30 -40 -61 -64 -32 -25 -85 -71 -119 -103
-35 -32 -67 -58 -72 -58 -15 0 -127 140 -200 250 -73 111 -163 278 -163 303 0
31 196 44 390 27z m1633 -6 c22 -4 37 -12 37 -20 0 -22 -102 -212 -160 -299
-62 -92 -125 -176 -169 -223 l-32 -34 -69 65 c-37 36 -92 83 -122 105 l-53 41
-29 143 c-40 198 -43 181 34 196 35 7 94 16 130 21 78 10 380 13 433 5z
m-1210 -80 c62 -19 87 -32 87 -43 0 -40 -15 -62 -59 -87 -25 -14 -74 -44 -109
-67 -34 -22 -65 -37 -69 -33 -11 11 42 256 56 256 3 0 45 -12 94 -26z m566
-96 c12 -54 21 -107 21 -119 l0 -21 -32 21 c-18 12 -70 42 -115 67 -70 40 -82
51 -86 78 -3 17 -1 35 3 39 4 5 43 19 86 32 60 17 82 20 91 11 6 -6 21 -55 32
-108z m-502 -100 c-3 -18 -9 -64 -12 -103 -11 -123 -8 -118 -114 -195 -54 -38
-102 -70 -106 -70 -4 0 -6 57 -3 127 l4 126 32 25 c46 36 184 122 195 122 5 0
7 -15 4 -32z m438 -39 c90 -58 94 -62 99 -102 10 -85 14 -205 6 -217 -5 -9
-36 8 -108 59 -112 81 -103 61 -118 250 -8 100 -16 99 121 10z m-720 -357 c-7
-40 -45 -68 -72 -53 -10 5 -43 35 -73 66 l-55 56 60 57 c33 32 78 72 100 90
l40 32 3 -107 c2 -60 0 -123 -3 -141z m974 165 c50 -43 91 -85 91 -94 0 -16
-119 -133 -135 -132 -5 0 -19 8 -31 17 -19 16 -21 32 -27 155 -3 77 -2 137 3
135 5 -2 50 -38 99 -81z m-469 41 c58 -30 90 -77 90 -136 0 -91 -71 -162 -162
-162 -59 0 -106 32 -136 92 -32 63 -24 115 25 169 55 60 113 72 183 37z m669
-243 c34 -40 91 -118 127 -172 72 -107 179 -311 169 -322 -4 -3 -113 -6 -243
-6 -179 1 -259 5 -326 18 -49 9 -93 20 -98 25 -5 5 -2 35 6 68 8 32 17 71 20
87 8 34 16 34 141 -3 112 -33 241 -57 251 -47 11 11 -72 111 -167 202 -49 46
-89 86 -89 88 0 7 134 137 141 137 4 0 34 -34 68 -75z m-1333 8 c35 -32 64
-62 64 -68 0 -5 -30 -37 -66 -69 -67 -60 -194 -202 -194 -218 0 -17 79 -6 205
28 196 53 182 53 193 8 24 -92 34 -145 30 -150 -10 -10 -170 -33 -304 -44
-134 -11 -344 -3 -361 14 -10 10 92 204 164 312 72 109 180 244 194 244 6 0
39 -26 75 -57z m710 -163 c60 -27 110 -54 112 -59 2 -5 -49 -35 -112 -67
l-115 -59 -106 55 c-126 65 -139 76 -99 90 16 6 67 28 114 50 47 22 88 40 91
40 3 0 54 -22 115 -50z m-288 -142 c62 -34 109 -65 104 -69 -19 -20 -252 -89
-252 -75 0 2 -9 39 -20 82 -25 99 -25 103 3 114 38 15 50 12 165 -52z m517 48
c17 -12 18 -18 6 -72 -18 -85 -31 -124 -42 -124 -19 0 -228 71 -234 79 -6 11
204 130 231 131 11 0 29 -6 39 -14z m-245 -170 c50 -19 114 -40 141 -47 28 -7
54 -18 59 -24 29 -35 -241 -576 -297 -592 -39 -12 -303 494 -303 580 0 10 20
21 58 32 61 17 148 48 197 70 42 19 41 19 145 -19z"/>
</g>
</svg>
